<svg id="SvgjsSvg1310" width="2355.0800170898438" height="950" xmlns="http://www.w3.org/2000/svg" version="1.1" xmlns:xlink="http://www.w3.org/1999/xlink" xmlns:svgjs="http://svgjs.com/svgjs"><defs id="SvgjsDefs1311"><pattern id="SvgjsPattern1366" x="0" y="0" width="75.1687048770209" height="77.05997554829958" patternUnits="userSpaceOnUse"><image id="SvgjsImage1367" xlink:href="https://processon.com/assets/images/designer/network_aliyun/Database/KVStore.svg" width="75.1687048770209" height="77.05997554829958" preserveAspectRatio="none" crossOrigin="anonymous" x="0" y="0"></image></pattern><pattern id="SvgjsPattern1392" x="0" y="0" width="65.11349437734305" height="64.01020408163276" patternUnits="userSpaceOnUse"><image id="SvgjsImage1393" xlink:href="https://processon.com/assets/images/designer/network_aliyun/Security/AGW.svg" width="65.11349437734305" height="64.01020408163276" preserveAspectRatio="none" crossOrigin="anonymous" x="0" y="0"></image></pattern><pattern id="SvgjsPattern1456" x="0" y="0" width="57.64783979124741" height="78.40638464753425" patternUnits="userSpaceOnUse"><image id="SvgjsImage1457" xlink:href="https://processon.com/assets/images/designer/network_azure/MySQLDatabase.svg" width="57.64783979124741" height="78.40638464753425" preserveAspectRatio="none" crossOrigin="anonymous" x="0" y="0"></image></pattern><pattern id="SvgjsPattern1462" x="0" y="0" width="75.168704877021" height="71.64659883241755" patternUnits="userSpaceOnUse"><image id="SvgjsImage1463" xlink:href="https://processon.com/assets/images/designer/network_aliyun/InternetMiddleware/DRDS.svg" width="75.168704877021" height="71.64659883241755" preserveAspectRatio="none" crossOrigin="anonymous" x="0" y="0"></image></pattern><pattern id="SvgjsPattern1474" x="0" y="0" width="75.168704877021" height="71.64659883241755" patternUnits="userSpaceOnUse"><image id="SvgjsImage1475" xlink:href="https://processon.com/assets/images/designer/network_aliyun/Security/AGW.svg" width="75.168704877021" height="71.64659883241755" preserveAspectRatio="none" crossOrigin="anonymous" x="0" y="0"></image></pattern><pattern id="SvgjsPattern1512" x="0" y="0" width="75" height="75" patternUnits="userSpaceOnUse"><image id="SvgjsImage1513" xlink:href="https://processon.com/assets/images/designer/network_aliyun/Network/HSA.svg" width="75" height="75" preserveAspectRatio="none" crossOrigin="anonymous" x="0" y="0"></image></pattern><pattern id="SvgjsPattern1574" x="0" y="0" width="100.85714285714286" height="88.47712477871079" patternUnits="userSpaceOnUse"><image id="SvgjsImage1575" xlink:href="https://processon.com/assets/images/designer/network/mac.svg" width="100.85714285714286" height="88.47712477871079" preserveAspectRatio="none" crossOrigin="anonymous" x="0" y="0"></image></pattern><pattern id="SvgjsPattern1580" x="0" y="0" width="40" height="76" patternUnits="userSpaceOnUse"><image id="SvgjsImage1581" xlink:href="https://processon.com/assets/images/designer/network/iphone.svg" width="40" height="76" preserveAspectRatio="none" crossOrigin="anonymous" x="0" y="0"></image></pattern><pattern id="SvgjsPattern1600" x="0" y="0" width="82.90958052627639" height="81.70072660548851" patternUnits="userSpaceOnUse"><image id="SvgjsImage1601" xlink:href="https://processon.com/assets/images/designer/network_aliyun/Security/SAS.svg" width="82.90958052627639" height="81.70072660548851" preserveAspectRatio="none" crossOrigin="anonymous" x="0" y="0"></image></pattern></defs><rect id="svgbackgroundid" width="2355.0800170898438" height="950" fill="#212121"></rect><g id="SvgjsG1313" transform="translate(291.70051880150913,419.6364107196796)"><path id="SvgjsPath1314" d="M 0 0L 113.00090535481752 0L 113.00090535481752 144.14084369429287L 0 144.14084369429287Z" stroke-dasharray="10,6" stroke="rgba(204,153,255,1)" stroke-width="2" fill="none"></path><g id="SvgjsG1315"><text id="SvgjsText1316" font-family="微软雅黑" text-anchor="middle" font-size="21px" width="94px" fill="#ffffff" font-weight="700" align="middle" lineHeight="125%" anchor="middle" family="微软雅黑" size="21px" weight="700" font-style="" opacity="1" y="53.445421847146434" transform="rotate(0)"><tspan id="SvgjsTspan1317" dy="26" x="57"><tspan id="SvgjsTspan1318" style="text-decoration:;"> </tspan></tspan></text></g></g><g id="SvgjsG1319" transform="translate(1079.97221191482,25.001893118841394)"><path id="SvgjsPath1320" d="M 0 0L 582.848639729059 0L 582.848639729059 900.4803988877368L 0 900.4803988877368Z" stroke-dasharray="10,6" stroke="rgba(204,153,255,1)" stroke-width="2" fill="none"></path><g id="SvgjsG1321"><text id="SvgjsText1322" font-family="微软雅黑" text-anchor="middle" font-size="21px" width="563px" fill="#ffffff" font-weight="700" align="middle" lineHeight="125%" anchor="middle" family="微软雅黑" size="21px" weight="700" font-style="" opacity="1" y="431.6151994438684" transform="rotate(0)"><tspan id="SvgjsTspan1323" dy="26" x="291.5"><tspan id="SvgjsTspan1324" style="text-decoration:;"> </tspan></tspan></text></g></g><g id="SvgjsG1325" transform="translate(499.6637386605304,25.001893118841508)"><path id="SvgjsPath1326" d="M 0 0L 439.5974950121815 0L 439.5974950121815 900.480398887737L 0 900.480398887737Z" stroke-dasharray="10,6" stroke="rgba(204,153,255,1)" stroke-width="2" fill="none"></path><g id="SvgjsG1327"><text id="SvgjsText1328" font-family="微软雅黑" text-anchor="middle" font-size="21px" width="420px" fill="#ffffff" font-weight="700" align="middle" lineHeight="125%" anchor="middle" family="微软雅黑" size="21px" weight="700" font-style="" opacity="1" y="431.6151994438685" transform="rotate(0)"><tspan id="SvgjsTspan1329" dy="26" x="220"><tspan id="SvgjsTspan1330" style="text-decoration:;"> </tspan></tspan></text></g></g><g id="SvgjsG1331" transform="translate(564.7821492927948,224.88258961676786)"><path id="SvgjsPath1332" d="M 0 4Q 0 0 4 0L 308.0074523510853 0Q 312.0074523510853 0 312.0074523510853 4L 312.0074523510853 190.7538211029119Q 312.0074523510853 194.7538211029119 308.0074523510853 194.7538211029119L 4 194.7538211029119Q 0 194.7538211029119 0 190.7538211029119Z" stroke="rgba(255,255,255,0.3)" stroke-width="2" fill-opacity="0.3" fill="#e5e5e5"></path><g id="SvgjsG1333"><text id="SvgjsText1334" font-family="微软雅黑" text-anchor="middle" font-size="21px" width="293px" fill="#ffffff" font-weight="700" align="middle" lineHeight="125%" anchor="middle" family="微软雅黑" size="21px" weight="700" font-style="" opacity="0.3" y="78.75191055145595" transform="rotate(0)"><tspan id="SvgjsTspan1335" dy="26" x="156.5"><tspan id="SvgjsTspan1336" style="text-decoration:;"> </tspan></tspan></text></g></g><g id="SvgjsG1337" transform="translate(1783.0869342341337,28.35043367221266)"><path id="SvgjsPath1338" d="M 0 0L 547.3389894312304 0L 547.3389894312304 895.2715580269376L 0 895.2715580269376Z" stroke-dasharray="10,6" stroke="rgba(204,153,255,1)" stroke-width="2" fill="none"></path><g id="SvgjsG1339"><text id="SvgjsText1340" font-family="微软雅黑" text-anchor="middle" font-size="21px" width="528px" fill="#ffffff" font-weight="700" align="middle" lineHeight="125%" anchor="middle" family="微软雅黑" size="21px" weight="700" font-style="" opacity="1" y="429.0107790134688" transform="rotate(0)"></text></g></g><g id="SvgjsG1341" transform="translate(584.4297065899065,277.2869815775454)"><path id="SvgjsPath1342" d="M 0 4Q 0 0 4 0L 260.7028682077504 0Q 264.7028682077504 0 264.7028682077504 4L 264.7028682077504 108.20493864699914Q 264.7028682077504 112.20493864699914 260.7028682077504 112.20493864699914L 4 112.20493864699914Q 0 112.20493864699914 0 108.20493864699914Z" stroke="rgba(50,50,50,0.35)" stroke-width="2" fill-opacity="0.35" fill="#ccccff"></path><g id="SvgjsG1343"><text id="SvgjsText1344" font-family="微软雅黑" text-anchor="middle" font-size="13px" width="245px" fill="#323232" font-weight="400" align="middle" lineHeight="125%" anchor="middle" family="微软雅黑" size="13px" weight="400" font-style="" opacity="0.35" y="45.47746932349957" transform="rotate(0)"></text></g></g><g id="SvgjsG1345" transform="translate(1166.2243809772344,156.19390477383325)"><path id="SvgjsPath1346" d="M 0 4Q 0 0 4 0L 440.9240691310995 0Q 444.9240691310995 0 444.9240691310995 4L 444.9240691310995 74.04183102768421Q 444.9240691310995 78.04183102768421 440.9240691310995 78.04183102768421L 4 78.04183102768421Q 0 78.04183102768421 0 74.04183102768421Z" stroke="rgba(153,153,255,1)" stroke-width="2" fill-opacity="1" fill="#9999ff"></path><g id="SvgjsG1347"><text id="SvgjsText1348" font-family="微软雅黑" text-anchor="middle" font-size="24px" width="425px" fill="#ffffff" font-weight="700" align="middle" lineHeight="125%" anchor="middle" family="微软雅黑" size="24px" weight="700" font-style="" opacity="1" y="18.020915513842105" transform="rotate(0)"><tspan id="SvgjsTspan1349" dy="30" x="222.5"><tspan id="SvgjsTspan1350" style="text-decoration:;">sys（2G*2）</tspan></tspan></text></g></g><g id="SvgjsG1351" transform="translate(530.7193315734927,225.02016151752417)"><path id="SvgjsPath1352" d="M 0 0L 288.6364284340182 0L 288.6364284340182 54.76745769502083L 0 54.76745769502083Z" stroke="none" fill="none"></path><g id="SvgjsG1353"><text id="SvgjsText1354" font-family="微软雅黑" text-anchor="middle" font-size="18px" width="289px" fill="#ffffff" font-weight="700" align="middle" lineHeight="125%" anchor="middle" family="微软雅黑" size="18px" weight="700" font-style="" opacity="1" y="12.133728847510415" transform="rotate(0)"><tspan id="SvgjsTspan1355" dy="22" x="144.5"><tspan id="SvgjsTspan1356" style="text-decoration:;">gateway</tspan><tspan id="SvgjsTspan1357" style="text-decoration:;font-size: inherit;">（2G）</tspan></tspan></text></g></g><g id="SvgjsG1358" transform="translate(611.1078482560051,303.79648598710236)"><path id="SvgjsPath1359" d="M 0 4Q 0 0 4 0L 198.82487419191278 0Q 202.82487419191278 0 202.82487419191278 4L 202.82487419191278 54.12031470084318Q 202.82487419191278 58.12031470084318 198.82487419191278 58.12031470084318L 4 58.12031470084318Q 0 58.12031470084318 0 54.12031470084318Z" stroke="rgba(255,255,255,1)" stroke-width="2" fill-opacity="1" fill="#9999ff"></path><g id="SvgjsG1360"><text id="SvgjsText1361" font-family="微软雅黑" text-anchor="middle" font-size="15px" width="183px" fill="#ffffff" font-weight="700" align="middle" lineHeight="125%" anchor="middle" family="微软雅黑" size="15px" weight="700" font-style="" opacity="1" y="16.68515735042159" transform="rotate(0)"><tspan id="SvgjsTspan1362" dy="18" x="101.5"><tspan id="SvgjsTspan1363" style="text-decoration:;">gateway</tspan></tspan></text></g></g><g id="SvgjsG1364" transform="translate(1842.095222359233,200.22700602924579)"><path id="SvgjsPath1365" d="M 0 0L 75.1687048770209 0L 75.1687048770209 77.05997554829958L 0 77.05997554829958Z" stroke="none" fill="url(#SvgjsPattern1366)" opacity="1"></path><g id="SvgjsG1368"><text id="SvgjsText1369" font-family="微软雅黑" text-anchor="middle" font-size="13px" width="116px" fill="#323232" font-weight="400" align="middle" lineHeight="125%" anchor="middle" family="微软雅黑" size="13px" weight="400" font-style="" opacity="1" y="81.43497554829958" transform="rotate(0)"></text></g></g><g id="SvgjsG1370" transform="translate(1939.9110122885659,66.60242764977036)"><path id="SvgjsPath1371" d="M 0 0L 159.25137235692569 0L 159.25137235692569 43.12217936777502L 0 43.12217936777502Z" stroke="none" fill="none"></path><g id="SvgjsG1372"><text id="SvgjsText1373" font-family="微软雅黑" text-anchor="middle" font-size="16px" width="160px" fill="#ffffff" font-weight="700" align="middle" lineHeight="125%" anchor="middle" family="微软雅黑" size="16px" weight="700" font-style="" opacity="1" y="7.561089683887509" transform="rotate(0)"><tspan id="SvgjsTspan1374" dy="20" x="80"><tspan id="SvgjsTspan1375" style="text-decoration:;">关系型数据库MySQL</tspan></tspan></text></g></g><g id="SvgjsG1376" transform="translate(1948.6714448314528,217.1959041195081)"><path id="SvgjsPath1377" d="M 0 0L 159.25137235692569 0L 159.25137235692569 43.12217936777502L 0 43.12217936777502Z" stroke="none" fill="none"></path><g id="SvgjsG1378"><text id="SvgjsText1379" font-family="微软雅黑" text-anchor="middle" font-size="16px" width="160px" fill="#ffffff" font-weight="700" align="middle" lineHeight="125%" anchor="middle" family="微软雅黑" size="16px" weight="700" font-style="" opacity="1" y="7.561089683887509" transform="rotate(0)"><tspan id="SvgjsTspan1380" dy="20" x="80"><tspan id="SvgjsTspan1381" style="text-decoration:;">缓存Redis集群</tspan></tspan></text></g></g><g id="SvgjsG1382" transform="translate(1303.3032620125123,52.74605554054355)"><path id="SvgjsPath1383" d="M 0 0L 165.72221984225018 0L 165.72221984225018 40L 0 40Z" stroke="none" fill="none"></path><g id="SvgjsG1384"><text id="SvgjsText1385" font-family="微软雅黑" text-anchor="middle" font-size="23px" width="166px" fill="#ffffff" font-weight="700" align="middle" lineHeight="125%" anchor="middle" family="微软雅黑" size="23px" weight="700" font-style="" opacity="1" y="-14.875" transform="rotate(0)"><tspan id="SvgjsTspan1386" dy="28" x="83"><tspan id="SvgjsTspan1387" style="text-decoration:;">spring cloud</tspan></tspan><tspan id="SvgjsTspan1388" dy="28" x="83"><tspan id="SvgjsTspan1389" style="text-decoration:;">微服务</tspan></tspan></text></g></g><g id="SvgjsG1390" transform="translate(315.64422429024637,451.67439161558457)"><path id="SvgjsPath1391" d="M 0 0L 65.11349437734305 0L 65.11349437734305 64.01020408163276L 0 64.01020408163276Z" stroke="none" fill="url(#SvgjsPattern1392)" opacity="1"></path><g id="SvgjsG1394"><text id="SvgjsText1395" font-family="微软雅黑" text-anchor="middle" font-size="14px" width="106px" fill="#ffffff" font-weight="700" align="middle" lineHeight="125%" anchor="middle" family="微软雅黑" size="14px" weight="700" font-style="" opacity="1" y="67.76020408163276" transform="rotate(0)"><tspan id="SvgjsTspan1396" dy="17" x="33"><tspan id="SvgjsTspan1397" style="text-decoration:;">SLB</tspan></tspan></text></g></g><g id="SvgjsG1398" transform="translate(41.39489164579004,25.001893118841508)"><path id="SvgjsPath1399" d="M 0 0L 414.68607487981757 0L 414.68607487981757 67.91140928006732L 0 67.91140928006732Z" stroke-dasharray="10,6" stroke="rgba(51,51,255,1)" stroke-width="2" fill="none"></path><g id="SvgjsG1400"><text id="SvgjsText1401" font-family="微软雅黑" text-anchor="middle" font-size="21px" width="395px" fill="#ffffff" font-weight="700" align="middle" lineHeight="125%" anchor="middle" family="微软雅黑" size="21px" weight="700" font-style="" opacity="1" y="15.330704640033659" transform="rotate(0)"><tspan id="SvgjsTspan1402" dy="26" x="207.5"><tspan id="SvgjsTspan1403" style="text-decoration:;">f-cloud部署架构图</tspan></tspan></text></g></g><g id="SvgjsG1404" transform="translate(564.782149292795,508.2556585068595)"><path id="SvgjsPath1405" d="M 0 4Q 0 0 4 0L 308.0074523510851 0Q 312.0074523510851 0 312.0074523510851 4L 312.0074523510851 184.0628322929638Q 312.0074523510851 188.0628322929638 308.0074523510851 188.0628322929638L 4 188.0628322929638Q 0 188.0628322929638 0 184.0628322929638Z" stroke="rgba(255,255,255,0.3)" stroke-width="2" fill-opacity="0.3" fill="#e5e5e5"></path><g id="SvgjsG1406"><text id="SvgjsText1407" font-family="微软雅黑" text-anchor="middle" font-size="21px" width="293px" fill="#ffffff" font-weight="700" align="middle" lineHeight="125%" anchor="middle" family="微软雅黑" size="21px" weight="700" font-style="" opacity="0.3" y="75.4064161464819" transform="rotate(0)"><tspan id="SvgjsTspan1408" dy="26" x="156.5"><tspan id="SvgjsTspan1409" style="text-decoration:;"> </tspan></tspan></text></g></g><g id="SvgjsG1410" transform="translate(584.4297065899067,558.8596380381607)"><path id="SvgjsPath1411" d="M 0 4Q 0 0 4 0L 260.70286820775027 0Q 264.70286820775027 0 264.70286820775027 4L 264.70286820775027 104.35001048868965Q 264.70286820775027 108.35001048868965 260.70286820775027 108.35001048868965L 4 108.35001048868965Q 0 108.35001048868965 0 104.35001048868965Z" stroke="rgba(50,50,50,0.35)" stroke-width="2" fill-opacity="0.35" fill="#ccccff"></path><g id="SvgjsG1412"><text id="SvgjsText1413" font-family="微软雅黑" text-anchor="middle" font-size="13px" width="245px" fill="#323232" font-weight="400" align="middle" lineHeight="125%" anchor="middle" family="微软雅黑" size="13px" weight="400" font-style="" opacity="0.35" y="43.550005244344824" transform="rotate(0)"></text></g></g><g id="SvgjsG1414" transform="translate(530.7193315734929,510.32156065112076)"><path id="SvgjsPath1415" d="M 0 0L 288.636428434018 0L 288.636428434018 52.885859457248394L 0 52.885859457248394Z" stroke="none" fill="none"></path><g id="SvgjsG1416"><text id="SvgjsText1417" font-family="微软雅黑" text-anchor="middle" font-size="18px" width="289px" fill="#ffffff" font-weight="700" align="middle" lineHeight="125%" anchor="middle" family="微软雅黑" size="18px" weight="700" font-style="" opacity="1" y="11.192929728624197" transform="rotate(0)"><tspan id="SvgjsTspan1418" dy="22" x="144.5"><tspan id="SvgjsTspan1419" style="text-decoration:;">gateway（2G）</tspan></tspan></text></g></g><g id="SvgjsG1420" transform="translate(611.1078482560052,584.458378302721)"><path id="SvgjsPath1421" d="M 0 4Q 0 0 4 0L 198.82487419191264 0Q 202.82487419191264 0 202.82487419191264 4L 202.82487419191264 52.12352525100483Q 202.82487419191264 56.12352525100483 198.82487419191264 56.12352525100483L 4 56.12352525100483Q 0 56.12352525100483 0 52.12352525100483Z" stroke="rgba(255,255,255,1)" stroke-width="2" fill-opacity="1" fill="#9999ff"></path><g id="SvgjsG1422"><text id="SvgjsText1423" font-family="微软雅黑" text-anchor="middle" font-size="15px" width="183px" fill="#ffffff" font-weight="700" align="middle" lineHeight="125%" anchor="middle" family="微软雅黑" size="15px" weight="700" font-style="" opacity="1" y="15.686762625502414" transform="rotate(0)"><tspan id="SvgjsTspan1424" dy="18" x="101.5"><tspan id="SvgjsTspan1425" style="text-decoration:;">gateway</tspan></tspan></text></g></g><g id="SvgjsG1426" transform="translate(192.48726529230595,475.1580066267927)"><path id="SvgjsPath1427" d="M 0 10.922225120422024L 70.14909072663326 10.922225120422024L 70.14909072663326 0L 86.69791666666663 16.548825940033367L 70.14909072663326 33.097651880066735L 70.14909072663326 22.175426759644715L 0 22.175426759644715L 0 10.922225120422024Z" stroke="rgba(50,50,50,1)" stroke-width="2" fill-opacity="1" fill="#ffffff"></path><g id="SvgjsG1428"><text id="SvgjsText1429" font-family="微软雅黑" text-anchor="middle" font-size="13px" width="87px" fill="#323232" font-weight="400" align="middle" lineHeight="125%" anchor="middle" family="微软雅黑" size="13px" weight="400" font-style="" opacity="1" y="5.923825940033369" transform="rotate(0)"></text></g></g><g id="SvgjsG1430" transform="translate(1166.2243809772335,298.85368524208627)"><path id="SvgjsPath1431" d="M 0 4Q 0 0 4 0L 440.9240691310995 0Q 444.9240691310995 0 444.9240691310995 4L 444.9240691310995 74.04183102768421Q 444.9240691310995 78.04183102768421 440.9240691310995 78.04183102768421L 4 78.04183102768421Q 0 78.04183102768421 0 74.04183102768421Z" stroke="rgba(153,153,255,1)" stroke-width="2" fill-opacity="1" fill="#9999ff"></path><g id="SvgjsG1432"><text id="SvgjsText1433" font-family="微软雅黑" text-anchor="middle" font-size="24px" width="425px" fill="#ffffff" font-weight="700" align="middle" lineHeight="125%" anchor="middle" family="微软雅黑" size="24px" weight="700" font-style="" opacity="1" y="18.020915513842105" transform="rotate(0)"><tspan id="SvgjsTspan1434" dy="30" x="222.5"><tspan id="SvgjsTspan1435" style="text-decoration:;">pay（2G*2）</tspan></tspan></text></g></g><g id="SvgjsG1436" transform="translate(1160.9747244053324,434.07480414211807)"><path id="SvgjsPath1437" d="M 0 4Q 0 0 4 0L 440.9240691310995 0Q 444.9240691310995 0 444.9240691310995 4L 444.9240691310995 74.04183102768421Q 444.9240691310995 78.04183102768421 440.9240691310995 78.04183102768421L 4 78.04183102768421Q 0 78.04183102768421 0 74.04183102768421Z" stroke="rgba(153,153,255,1)" stroke-width="2" fill-opacity="1" fill="#9999ff"></path><g id="SvgjsG1438"><text id="SvgjsText1439" font-family="微软雅黑" text-anchor="middle" font-size="24px" width="425px" fill="#ffffff" font-weight="700" align="middle" lineHeight="125%" anchor="middle" family="微软雅黑" size="24px" weight="700" font-style="" opacity="1" y="18.020915513842105" transform="rotate(0)"><tspan id="SvgjsTspan1440" dy="30" x="222.5"><tspan id="SvgjsTspan1441" style="text-decoration:;">sell（2G*2）</tspan></tspan></text></g></g><g id="SvgjsG1442" transform="translate(1159.7397903742685,575.2494740969995)"><path id="SvgjsPath1443" d="M 0 4Q 0 0 4 0L 440.9240691310995 0Q 444.9240691310995 0 444.9240691310995 4L 444.9240691310995 74.04183102768421Q 444.9240691310995 78.04183102768421 440.9240691310995 78.04183102768421L 4 78.04183102768421Q 0 78.04183102768421 0 74.04183102768421Z" stroke="rgba(153,153,255,1)" stroke-width="2" fill-opacity="1" fill="#9999ff"></path><g id="SvgjsG1444"><text id="SvgjsText1445" font-family="微软雅黑" text-anchor="middle" font-size="24px" width="425px" fill="#ffffff" font-weight="700" align="middle" lineHeight="125%" anchor="middle" family="微软雅黑" size="24px" weight="700" font-style="" opacity="1" y="18.020915513842105" transform="rotate(0)"><tspan id="SvgjsTspan1446" dy="30" x="222.5"><tspan id="SvgjsTspan1447" style="text-decoration:;">file（2G*2）</tspan></tspan></text></g></g><g id="SvgjsG1448" transform="translate(1162.2096584363946,717.7366895698453)"><path id="SvgjsPath1449" d="M 0 4Q 0 0 4 0L 440.9240691310995 0Q 444.9240691310995 0 444.9240691310995 4L 444.9240691310995 74.04183102768421Q 444.9240691310995 78.04183102768421 440.9240691310995 78.04183102768421L 4 78.04183102768421Q 0 78.04183102768421 0 74.04183102768421Z" stroke="rgba(153,153,255,1)" stroke-width="2" fill-opacity="1" fill="#9999ff"></path><g id="SvgjsG1450"><text id="SvgjsText1451" font-family="微软雅黑" text-anchor="middle" font-size="24px" width="425px" fill="#ffffff" font-weight="700" align="middle" lineHeight="125%" anchor="middle" family="微软雅黑" size="24px" weight="700" font-style="" opacity="1" y="18.020915513842105" transform="rotate(0)"><tspan id="SvgjsTspan1452" dy="30" x="222.5"><tspan id="SvgjsTspan1453" style="text-decoration:;">message（2G*2）</tspan></tspan></text></g></g><g id="SvgjsG1454" transform="translate(1842.095222359233,51.38492993301688)"><path id="SvgjsPath1455" d="M 0 0L 57.64783979124741 0L 57.64783979124741 78.40638464753425L 0 78.40638464753425Z" stroke="none" fill="url(#SvgjsPattern1456)" opacity="1"></path><g id="SvgjsG1458"><text id="SvgjsText1459" font-family="微软雅黑" text-anchor="middle" font-size="13px" width="98px" fill="#323232" font-weight="400" align="middle" lineHeight="125%" anchor="middle" family="微软雅黑" size="13px" weight="400" font-style="" opacity="1" y="82.78138464753425" transform="rotate(0)"></text></g></g><g id="SvgjsG1460" transform="translate(1842.0952223592333,362.4282053097006)"><path id="SvgjsPath1461" d="M 0 0L 75.168704877021 0L 75.168704877021 71.64659883241755L 0 71.64659883241755Z" stroke="none" fill="url(#SvgjsPattern1462)" opacity="1"></path><g id="SvgjsG1464"><text id="SvgjsText1465" font-family="微软雅黑" text-anchor="middle" font-size="13px" width="116px" fill="#323232" font-weight="400" align="middle" lineHeight="125%" anchor="middle" family="微软雅黑" size="13px" weight="400" font-style="" opacity="1" y="76.02159883241755" transform="rotate(0)"></text></g></g><g id="SvgjsG1466" transform="translate(1956.6934917798949,379.0513247335758)"><path id="SvgjsPath1467" d="M 0 0L 124.15572547182364 0L 124.15572547182364 41.826720665805624L 0 41.826720665805624Z" stroke="none" fill="none"></path><g id="SvgjsG1468"><text id="SvgjsText1469" font-family="微软雅黑" text-anchor="middle" font-size="16px" width="125px" fill="#ffffff" font-weight="700" align="middle" lineHeight="125%" anchor="middle" family="微软雅黑" size="16px" weight="700" font-style="" opacity="1" y="6.913360332902812" transform="rotate(0)"><tspan id="SvgjsTspan1470" dy="20" x="62.5"><tspan id="SvgjsTspan1471" style="text-decoration:;">xxljob</tspan></tspan></text></g></g><g id="SvgjsG1472" transform="translate(1842.095222359233,515.6845956972173)"><path id="SvgjsPath1473" d="M 0 0L 75.168704877021 0L 75.168704877021 71.64659883241755L 0 71.64659883241755Z" stroke="none" fill="url(#SvgjsPattern1474)" opacity="1"></path><g id="SvgjsG1476"><text id="SvgjsText1477" font-family="微软雅黑" text-anchor="middle" font-size="13px" width="116px" fill="#323232" font-weight="400" align="middle" lineHeight="125%" anchor="middle" family="微软雅黑" size="13px" weight="400" font-style="" opacity="1" y="76.02159883241755" transform="rotate(0)"></text></g></g><g id="SvgjsG1478" transform="translate(1939.145668337343,529.9468054295384)"><path id="SvgjsPath1479" d="M 0 0L 159.25137235692569 0L 159.25137235692569 43.12217936777502L 0 43.12217936777502Z" stroke="none" fill="none"></path><g id="SvgjsG1480"><text id="SvgjsText1481" font-family="微软雅黑" text-anchor="middle" font-size="16px" width="160px" fill="#ffffff" font-weight="700" align="middle" lineHeight="125%" anchor="middle" family="微软雅黑" size="16px" weight="700" font-style="" opacity="1" y="7.561089683887509" transform="rotate(0)"><tspan id="SvgjsTspan1482" dy="20" x="80"><tspan id="SvgjsTspan1483" style="text-decoration:;">nacos</tspan></tspan></text></g></g><g id="SvgjsG1484" transform="translate(245.89573771024766,850.1059891724574)"><path id="SvgjsPath1485" d="M 0 4Q 0 0 4 0L 200.61046753734047 0Q 204.61046753734047 0 204.61046753734047 4L 204.61046753734047 51.969000565121746Q 204.61046753734047 55.969000565121746 200.61046753734047 55.969000565121746L 4 55.969000565121746Q 0 55.969000565121746 0 51.969000565121746Z" stroke="rgba(153,153,255,1)" stroke-width="2" fill-opacity="1" fill="#454545"></path><g id="SvgjsG1486"><text id="SvgjsText1487" font-family="微软雅黑" text-anchor="middle" font-size="20px" width="185px" fill="#00ff80" font-weight="700" align="middle" lineHeight="125%" anchor="middle" family="微软雅黑" size="20px" weight="700" font-style="" opacity="1" y="9.984500282560873" transform="rotate(0)"><tspan id="SvgjsTspan1488" dy="25" x="102.5"><tspan id="SvgjsTspan1489" style="text-decoration:;">负载均衡按量收费</tspan></tspan></text></g></g><g id="SvgjsG1490" transform="translate(571.4758627354132,852.571410373002)"><path id="SvgjsPath1491" d="M 0 4Q 0 0 4 0L 286.6105559167372 0Q 290.6105559167372 0 290.6105559167372 4L 290.6105559167372 48.94033635144433Q 290.6105559167372 52.94033635144433 286.6105559167372 52.94033635144433L 4 52.94033635144433Q 0 52.94033635144433 0 48.94033635144433Z" stroke="rgba(153,153,255,1)" stroke-width="2" fill-opacity="1" fill="#454545"></path><g id="SvgjsG1492"><text id="SvgjsText1493" font-family="微软雅黑" text-anchor="middle" font-size="20px" width="271px" fill="#00ff80" font-weight="700" align="middle" lineHeight="125%" anchor="middle" family="微软雅黑" size="20px" weight="700" font-style="" opacity="1" y="8.470168175722165" transform="rotate(0)"><tspan id="SvgjsTspan1494" dy="25" x="145.5"><tspan id="SvgjsTspan1495" style="text-decoration:;">云服务器2台（2核4GB）</tspan></tspan></text></g></g><g id="SvgjsG1496" transform="translate(1225.060603857161,850.1059891724574)"><path id="SvgjsPath1497" d="M 0 4Q 0 0 4 0L 268.2269601925209 0Q 272.2269601925209 0 272.2269601925209 4L 272.2269601925209 51.969000565121746Q 272.2269601925209 55.969000565121746 268.2269601925209 55.969000565121746L 4 55.969000565121746Q 0 55.969000565121746 0 51.969000565121746Z" stroke="rgba(153,153,255,1)" stroke-width="2" fill-opacity="1" fill="#454545"></path><g id="SvgjsG1498"><text id="SvgjsText1499" font-family="微软雅黑" text-anchor="middle" font-size="20px" width="253px" fill="#00ff80" font-weight="700" align="middle" lineHeight="125%" anchor="middle" family="微软雅黑" size="20px" weight="700" font-style="" opacity="1" y="9.984500282560873" transform="rotate(0)"><tspan id="SvgjsTspan1500" dy="25" x="136.5"><tspan id="SvgjsTspan1501" style="text-decoration:;">云服务器2台（4核16GB）</tspan></tspan></text></g></g><g id="SvgjsG1502" transform="translate(2134.504108175726,58.75472569800519)"><path id="SvgjsPath1503" d="M 0 4Q 0 0 4 0L 140.30813889835508 0Q 144.30813889835508 0 144.30813889835508 4L 144.30813889835508 54.81758327130535Q 144.30813889835508 58.81758327130535 140.30813889835508 58.81758327130535L 4 58.81758327130535Q 0 58.81758327130535 0 54.81758327130535Z" stroke="rgba(153,153,255,1)" stroke-width="2" fill-opacity="1" fill="#454545"></path><g id="SvgjsG1504"><text id="SvgjsText1505" font-family="微软雅黑" text-anchor="middle" font-size="20px" width="125px" fill="#00ff80" font-weight="700" align="middle" lineHeight="125%" anchor="middle" family="微软雅黑" size="20px" weight="700" font-style="" opacity="1" y="-1.0912083643473238" transform="rotate(0)"><tspan id="SvgjsTspan1506" dy="25" x="72.5"><tspan id="SvgjsTspan1507" style="text-decoration:;">高可用（2核</tspan></tspan><tspan id="SvgjsTspan1508" dy="25" x="72.5"><tspan id="SvgjsTspan1509" style="text-decoration:;">4GB）</tspan></tspan></text></g></g><g id="SvgjsG1510" transform="translate(1842.095222359233,682.2872668083045)"><path id="SvgjsPath1511" d="M 0 0L 75 0L 75 75L 0 75Z" stroke="none" fill="url(#SvgjsPattern1512)" opacity="1"></path><g id="SvgjsG1514"><text id="SvgjsText1515" font-family="微软雅黑" text-anchor="middle" font-size="13px" width="115px" fill="#323232" font-weight="400" align="middle" lineHeight="125%" anchor="middle" family="微软雅黑" size="13px" weight="400" font-style="" opacity="1" y="79.375" transform="rotate(0)"></text></g></g><g id="SvgjsG1516" transform="translate(1939.1456683373435,698.4226268456596)"><path id="SvgjsPath1517" d="M 0 0L 159.25137235692569 0L 159.25137235692569 43.12217936777502L 0 43.12217936777502Z" stroke="none" fill="none"></path><g id="SvgjsG1518"><text id="SvgjsText1519" font-family="微软雅黑" text-anchor="middle" font-size="16px" width="160px" fill="#ffffff" font-weight="700" align="middle" lineHeight="125%" anchor="middle" family="微软雅黑" size="16px" weight="700" font-style="" opacity="1" y="7.561089683887509" transform="rotate(0)"><tspan id="SvgjsTspan1520" dy="20" x="80"><tspan id="SvgjsTspan1521" style="text-decoration:;">minio</tspan></tspan></text></g></g><g id="SvgjsG1522" transform="translate(2131.770912016604,210.33481705066157)"><path id="SvgjsPath1523" d="M 0 4Q 0 0 4 0L 145.77453121659846 0Q 149.77453121659846 0 149.77453121659846 4L 149.77453121659846 52.844353505468064Q 149.77453121659846 56.844353505468064 145.77453121659846 56.844353505468064L 4 56.844353505468064Q 0 56.844353505468064 0 52.844353505468064Z" stroke="rgba(153,153,255,1)" stroke-width="2" fill-opacity="1" fill="#454545"></path><g id="SvgjsG1524"><text id="SvgjsText1525" font-family="微软雅黑" text-anchor="middle" font-size="20px" width="130px" fill="#00ff80" font-weight="700" align="middle" lineHeight="125%" anchor="middle" family="微软雅黑" size="20px" weight="700" font-style="" opacity="1" y="10.422176752734032" transform="rotate(0)"><tspan id="SvgjsTspan1526" dy="25" x="75"><tspan id="SvgjsTspan1527" style="text-decoration:;">集群（2GB）</tspan></tspan></text></g></g><g id="SvgjsG1528" transform="translate(2135.6213690044287,527.5155577546197)"><path id="SvgjsPath1529" d="M 0 4Q 0 0 4 0L 145.77453121659846 0Q 149.77453121659846 0 149.77453121659846 4L 149.77453121659846 52.844353505468064Q 149.77453121659846 56.844353505468064 145.77453121659846 56.844353505468064L 4 56.844353505468064Q 0 56.844353505468064 0 52.844353505468064Z" stroke="rgba(153,153,255,1)" stroke-width="2" fill-opacity="1" fill="#454545"></path><g id="SvgjsG1530"><text id="SvgjsText1531" font-family="微软雅黑" text-anchor="middle" font-size="20px" width="130px" fill="#00ff80" font-weight="700" align="middle" lineHeight="125%" anchor="middle" family="微软雅黑" size="20px" weight="700" font-style="" opacity="1" y="-2.077823247265968" transform="rotate(0)"><tspan id="SvgjsTspan1532" dy="25" x="75"><tspan id="SvgjsTspan1533" style="text-decoration:;">云服务器3台</tspan></tspan><tspan id="SvgjsTspan1534" dy="25" x="75"><tspan id="SvgjsTspan1535" style="text-decoration:;">（1核2GB）</tspan></tspan></text></g></g><g id="SvgjsG1536" transform="translate(2133.9547023377645,371.54250831374463)"><path id="SvgjsPath1537" d="M 0 4Q 0 0 4 0L 145.77453121659846 0Q 149.77453121659846 0 149.77453121659846 4L 149.77453121659846 52.844353505468064Q 149.77453121659846 56.844353505468064 145.77453121659846 56.844353505468064L 4 56.844353505468064Q 0 56.844353505468064 0 52.844353505468064Z" stroke="rgba(153,153,255,1)" stroke-width="2" fill-opacity="1" fill="#454545"></path><g id="SvgjsG1538"><text id="SvgjsText1539" font-family="微软雅黑" text-anchor="middle" font-size="20px" width="130px" fill="#00ff80" font-weight="700" align="middle" lineHeight="125%" anchor="middle" family="微软雅黑" size="20px" weight="700" font-style="" opacity="1" y="-2.077823247265968" transform="rotate(0)"><tspan id="SvgjsTspan1540" dy="25" x="75"><tspan id="SvgjsTspan1541" style="text-decoration:;">云服务器1台</tspan></tspan><tspan id="SvgjsTspan1542" dy="25" x="75"><tspan id="SvgjsTspan1543" style="text-decoration:;">（1核2GB）</tspan></tspan></text></g></g><g id="SvgjsG1544" transform="translate(2133.806706703549,691.401179313455)"><path id="SvgjsPath1545" d="M 0 4Q 0 0 4 0L 145.77453121659846 0Q 149.77453121659846 0 149.77453121659846 4L 149.77453121659846 52.844353505468064Q 149.77453121659846 56.844353505468064 145.77453121659846 56.844353505468064L 4 56.844353505468064Q 0 56.844353505468064 0 52.844353505468064Z" stroke="rgba(153,153,255,1)" stroke-width="2" fill-opacity="1" fill="#454545"></path><g id="SvgjsG1546"><text id="SvgjsText1547" font-family="微软雅黑" text-anchor="middle" font-size="20px" width="130px" fill="#00ff80" font-weight="700" align="middle" lineHeight="125%" anchor="middle" family="微软雅黑" size="20px" weight="700" font-style="" opacity="1" y="-2.077823247265968" transform="rotate(0)"><tspan id="SvgjsTspan1548" dy="25" x="75"><tspan id="SvgjsTspan1549" style="text-decoration:;">云服务器1台</tspan></tspan><tspan id="SvgjsTspan1550" dy="25" x="75"><tspan id="SvgjsTspan1551" style="text-decoration:;">（1核2GB）</tspan></tspan></text></g></g><g id="SvgjsG1552" transform="translate(408.8336230750949,475.1580066267927)"><path id="SvgjsPath1553" d="M 0 10.922225120422024L 70.14909072663326 10.922225120422024L 70.14909072663326 0L 86.69791666666663 16.548825940033367L 70.14909072663326 33.097651880066735L 70.14909072663326 22.175426759644715L 0 22.175426759644715L 0 10.922225120422024Z" stroke="rgba(50,50,50,1)" stroke-width="2" fill-opacity="1" fill="#ffffff"></path><g id="SvgjsG1554"><text id="SvgjsText1555" font-family="微软雅黑" text-anchor="middle" font-size="13px" width="87px" fill="#323232" font-weight="400" align="middle" lineHeight="125%" anchor="middle" family="微软雅黑" size="13px" weight="400" font-style="" opacity="1" y="5.923825940033369" transform="rotate(0)"></text></g></g><g id="SvgjsG1556" transform="translate(611.1078482560057,59.20762195418703)"><path id="SvgjsPath1557" d="M 0 0L 165.72221984225018 0L 165.72221984225018 40L 0 40Z" stroke="none" fill="none"></path><g id="SvgjsG1558"><text id="SvgjsText1559" font-family="微软雅黑" text-anchor="middle" font-size="23px" width="166px" fill="#ffffff" font-weight="700" align="middle" lineHeight="125%" anchor="middle" family="微软雅黑" size="23px" weight="700" font-style="" opacity="1" y="-14.875" transform="rotate(0)"><tspan id="SvgjsTspan1560" dy="28" x="83"><tspan id="SvgjsTspan1561" style="text-decoration:;">spring cloud </tspan></tspan><tspan id="SvgjsTspan1562" dy="28" x="83"><tspan id="SvgjsTspan1563" style="text-decoration:;">Gateway</tspan></tspan></text></g></g><g id="SvgjsG1564" transform="translate(966.2677644604325,475.1580066267927)"><path id="SvgjsPath1565" d="M 0 10.922225120422024L 70.14909072663326 10.922225120422024L 70.14909072663326 0L 86.69791666666663 16.548825940033367L 70.14909072663326 33.097651880066735L 70.14909072663326 22.175426759644715L 0 22.175426759644715L 0 10.922225120422024Z" stroke="rgba(50,50,50,1)" stroke-width="2" fill-opacity="1" fill="#ffffff"></path><g id="SvgjsG1566"><text id="SvgjsText1567" font-family="微软雅黑" text-anchor="middle" font-size="13px" width="87px" fill="#323232" font-weight="400" align="middle" lineHeight="125%" anchor="middle" family="微软雅黑" size="13px" weight="400" font-style="" opacity="1" y="5.923825940033369" transform="rotate(0)"></text></g></g><g id="SvgjsG1568" transform="translate(1689.8273824316,475.9354328314913)"><path id="SvgjsPath1569" d="M 0 10.922225120422024L 70.14909072663326 10.922225120422024L 70.14909072663326 0L 86.69791666666663 16.548825940033367L 70.14909072663326 33.097651880066735L 70.14909072663326 22.175426759644715L 0 22.175426759644715L 0 10.922225120422024Z" stroke="rgba(50,50,50,1)" stroke-width="2" fill-opacity="1" fill="#ffffff"></path><g id="SvgjsG1570"><text id="SvgjsText1571" font-family="微软雅黑" text-anchor="middle" font-size="13px" width="87px" fill="#323232" font-weight="400" align="middle" lineHeight="125%" anchor="middle" family="微软雅黑" size="13px" weight="400" font-style="" opacity="1" y="5.923825940033369" transform="rotate(0)"></text></g></g><g id="SvgjsG1572" transform="translate(57.433374314081135,386.6808818480821)"><path id="SvgjsPath1573" d="M 0 0L 100.85714285714286 0L 100.85714285714286 88.47712477871079L 0 88.47712477871079Z" stroke="none" fill="url(#SvgjsPattern1574)" opacity="1"></path><g id="SvgjsG1576"><text id="SvgjsText1577" font-family="微软雅黑" text-anchor="middle" font-size="13px" width="141px" fill="#323232" font-weight="400" align="middle" lineHeight="125%" anchor="middle" family="微软雅黑" size="13px" weight="400" font-style="" opacity="1" y="92.85212477871079" transform="rotate(0)"></text></g></g><g id="SvgjsG1578" transform="translate(87.86194574265267,542.2963629225295)"><path id="SvgjsPath1579" d="M 0 0L 40 0L 40 76L 0 76Z" stroke="none" fill="url(#SvgjsPattern1580)" opacity="1"></path><g id="SvgjsG1582"><text id="SvgjsText1583" font-family="微软雅黑" text-anchor="middle" font-size="13px" width="80px" fill="#323232" font-weight="400" align="middle" lineHeight="125%" anchor="middle" family="微软雅黑" size="13px" weight="400" font-style="" opacity="1" y="80.375" transform="rotate(0)"></text></g></g><g id="SvgjsG1584" transform="translate(1956.1589130934462,846.5591761484704)"><path id="SvgjsPath1585" d="M 0 0L 125.2248828447207 0L 125.2248828447207 37.330900572728865L 0 37.330900572728865Z" stroke="none" fill="none"></path><g id="SvgjsG1586"><text id="SvgjsText1587" font-family="微软雅黑" text-anchor="middle" font-size="16px" width="126px" fill="#ffffff" font-weight="700" align="middle" lineHeight="125%" anchor="middle" family="微软雅黑" size="16px" weight="700" font-style="" opacity="1" y="4.6654502863644325" transform="rotate(0)"><tspan id="SvgjsTspan1588" dy="20" x="63"><tspan id="SvgjsTspan1589" style="text-decoration:;">prometheus</tspan></tspan></text></g></g><g id="SvgjsG1590" transform="translate(2133.8067067035486,836.6420892187426)"><path id="SvgjsPath1591" d="M 0 4Q 0 0 4 0L 145.77453121659846 0Q 149.77453121659846 0 149.77453121659846 4L 149.77453121659846 52.844353505468064Q 149.77453121659846 56.844353505468064 145.77453121659846 56.844353505468064L 4 56.844353505468064Q 0 56.844353505468064 0 52.844353505468064Z" stroke="rgba(153,153,255,1)" stroke-width="2" fill-opacity="1" fill="#454545"></path><g id="SvgjsG1592"><text id="SvgjsText1593" font-family="微软雅黑" text-anchor="middle" font-size="20px" width="130px" fill="#00ff80" font-weight="700" align="middle" lineHeight="125%" anchor="middle" family="微软雅黑" size="20px" weight="700" font-style="" opacity="1" y="-2.077823247265968" transform="rotate(0)"><tspan id="SvgjsTspan1594" dy="25" x="75"><tspan id="SvgjsTspan1595" style="text-decoration:;">云服务器1台</tspan></tspan><tspan id="SvgjsTspan1596" dy="25" x="75"><tspan id="SvgjsTspan1597" style="text-decoration:;">（1核2GB）</tspan></tspan></text></g></g><g id="SvgjsG1598" transform="translate(1838.1404320960949,824.3742631320906)"><path id="SvgjsPath1599" d="M 0 0L 82.90958052627639 0L 82.90958052627639 81.70072660548851L 0 81.70072660548851Z" stroke="none" fill="url(#SvgjsPattern1600)" opacity="1"></path><g id="SvgjsG1602"><text id="SvgjsText1603" font-family="微软雅黑" text-anchor="middle" font-size="13px" width="123px" fill="#323232" font-weight="400" align="middle" lineHeight="125%" anchor="middle" family="微软雅黑" size="13px" weight="400" font-style="" opacity="1" y="86.07572660548851" transform="rotate(0)"></text></g></g><g id="SvgjsG1604" transform="translate(41.39489164579004,262.76520408240594)"><path id="SvgjsPath1605" d="M 0 0L 137.93936058931496 0L 137.93936058931496 404.44444444444446L 0 404.44444444444446Z" stroke-dasharray="10,6" stroke="rgba(204,153,255,1)" stroke-width="2" fill="none"></path><g id="SvgjsG1606"><text id="SvgjsText1607" font-family="微软雅黑" text-anchor="middle" font-size="21px" width="118px" fill="#ffffff" font-weight="700" align="middle" lineHeight="125%" anchor="middle" family="微软雅黑" size="21px" weight="700" font-style="" opacity="1" y="183.59722222222223" transform="rotate(0)"></text></g></g><g id="SvgjsG1608" transform="translate(25.000835821527346,279.78761921254505)"><path id="SvgjsPath1609" d="M 0 0L 165.72221984225018 0L 165.72221984225018 40L 0 40Z" stroke="none" fill="none"></path><g id="SvgjsG1610"><text id="SvgjsText1611" font-family="微软雅黑" text-anchor="middle" font-size="23px" width="166px" fill="#ffffff" font-weight="700" align="middle" lineHeight="125%" anchor="middle" family="微软雅黑" size="23px" weight="700" font-style="" opacity="1" y="-0.375" transform="rotate(0)"><tspan id="SvgjsTspan1612" dy="28" x="83"><tspan id="SvgjsTspan1613" style="text-decoration:;">用户</tspan></tspan></text></g></g></svg>